<mxfile host="app.diagrams.net" modified="2024-07-18T02:56:38.444Z" agent="Mozilla/5.0 (Windows NT 10.0; Win64; x64) AppleWebKit/537.36 (KHTML, like Gecko) Chrome/126.0.0.0 Safari/537.36" etag="kfETmK2ZfeTRMT_VA137" version="24.7.1" type="device">
  <diagram name="第 1 页" id="5Oax3DH-gDdwKgabr6Hz">
    <mxGraphModel dx="1687" dy="868" grid="1" gridSize="10" guides="1" tooltips="1" connect="1" arrows="1" fold="1" page="1" pageScale="1" pageWidth="827" pageHeight="1169" math="0" shadow="0">
      <root>
        <mxCell id="0" />
        <mxCell id="1" parent="0" />
        <mxCell id="J54ywzlfJ32gfcLBf6p1-1" value=".container" style="rounded=0;whiteSpace=wrap;html=1;strokeWidth=5;" parent="1" vertex="1">
          <mxGeometry x="430" y="305" width="640" height="360" as="geometry" />
        </mxCell>
        <mxCell id="J54ywzlfJ32gfcLBf6p1-3" value=".news" style="rounded=0;whiteSpace=wrap;html=1;fillColor=#E1D5E7;strokeColor=#56517e;" parent="1" vertex="1">
          <mxGeometry x="430" y="305" width="640" height="216" as="geometry" />
        </mxCell>
        <mxCell id="J54ywzlfJ32gfcLBf6p1-14" value="" style="rounded=0;whiteSpace=wrap;html=1;fillColor=#f8cecc;strokeColor=#b85450;" parent="1" vertex="1">
          <mxGeometry x="430" y="305" width="404" height="216" as="geometry" />
        </mxCell>
        <mxCell id="J54ywzlfJ32gfcLBf6p1-18" value="" style="rounded=0;whiteSpace=wrap;html=1;fillColor=#ffe6cc;strokeColor=#d79b00;" parent="1" vertex="1">
          <mxGeometry x="430" y="425" width="404" height="96" as="geometry" />
        </mxCell>
        <mxCell id="J54ywzlfJ32gfcLBf6p1-9" value="img.news_photo&lt;div&gt;96*96&lt;/div&gt;" style="rounded=0;whiteSpace=wrap;html=1;fillColor=#BAC8D3;" parent="1" vertex="1">
          <mxGeometry x="430" y="425" width="96" height="96" as="geometry" />
        </mxCell>
        <mxCell id="J54ywzlfJ32gfcLBf6p1-17" value="" style="rounded=0;whiteSpace=wrap;html=1;fillColor=#FFE6CC;strokeColor=#d79b00;" parent="1" vertex="1">
          <mxGeometry x="430" y="305" width="404" height="96" as="geometry" />
        </mxCell>
        <mxCell id="J54ywzlfJ32gfcLBf6p1-8" value="img.news_photo&lt;div&gt;96*96&lt;/div&gt;" style="rounded=0;whiteSpace=wrap;html=1;fillColor=#BAC8D3;" parent="1" vertex="1">
          <mxGeometry x="430" y="305" width="96" height="96" as="geometry" />
        </mxCell>
        <mxCell id="J54ywzlfJ32gfcLBf6p1-10" value="img.ad_photo&lt;div&gt;216*216&lt;/div&gt;" style="rounded=0;whiteSpace=wrap;html=1;fontSize=24;fillColor=#F8CECC;strokeColor=#ae4132;" parent="1" vertex="1">
          <mxGeometry x="854" y="305" width="216" height="216" as="geometry" />
        </mxCell>
        <mxCell id="J54ywzlfJ32gfcLBf6p1-7" style="edgeStyle=orthogonalEdgeStyle;rounded=0;orthogonalLoop=1;jettySize=auto;html=1;entryX=0;entryY=0.75;entryDx=0;entryDy=0;" parent="1" source="J54ywzlfJ32gfcLBf6p1-2" target="J54ywzlfJ32gfcLBf6p1-1" edge="1">
          <mxGeometry relative="1" as="geometry">
            <Array as="points">
              <mxPoint x="410" y="575" />
            </Array>
          </mxGeometry>
        </mxCell>
        <mxCell id="J54ywzlfJ32gfcLBf6p1-2" value=".container" style="text;html=1;align=center;verticalAlign=middle;whiteSpace=wrap;rounded=0;fontSize=24;fontColor=default;" parent="1" vertex="1">
          <mxGeometry x="170" y="100" width="130" height="60" as="geometry" />
        </mxCell>
        <mxCell id="DaLSolLUmTDwcY_zlHiM-19" style="edgeStyle=orthogonalEdgeStyle;rounded=0;orthogonalLoop=1;jettySize=auto;html=1;" edge="1" parent="1" source="J54ywzlfJ32gfcLBf6p1-15" target="J54ywzlfJ32gfcLBf6p1-14">
          <mxGeometry relative="1" as="geometry">
            <Array as="points">
              <mxPoint x="390" y="255" />
              <mxPoint x="390" y="413" />
            </Array>
          </mxGeometry>
        </mxCell>
        <mxCell id="J54ywzlfJ32gfcLBf6p1-15" value="&lt;font style=&quot;font-size: 24px;&quot;&gt;ul.news_item&lt;/font&gt;" style="text;html=1;align=center;verticalAlign=middle;whiteSpace=wrap;rounded=0;fillColor=#F8CECC;strokeColor=#b85450;" parent="1" vertex="1">
          <mxGeometry x="195" y="240" width="160" height="30" as="geometry" />
        </mxCell>
        <mxCell id="J54ywzlfJ32gfcLBf6p1-13" value="24" style="edgeStyle=orthogonalEdgeStyle;rounded=0;orthogonalLoop=1;jettySize=auto;html=1;" parent="1" source="J54ywzlfJ32gfcLBf6p1-8" target="J54ywzlfJ32gfcLBf6p1-9" edge="1">
          <mxGeometry relative="1" as="geometry" />
        </mxCell>
        <mxCell id="DaLSolLUmTDwcY_zlHiM-4" style="edgeStyle=orthogonalEdgeStyle;rounded=0;orthogonalLoop=1;jettySize=auto;html=1;" edge="1" parent="1" source="DaLSolLUmTDwcY_zlHiM-2" target="DaLSolLUmTDwcY_zlHiM-3">
          <mxGeometry relative="1" as="geometry">
            <Array as="points">
              <mxPoint x="130" y="605" />
            </Array>
          </mxGeometry>
        </mxCell>
        <mxCell id="DaLSolLUmTDwcY_zlHiM-2" value="footer.footer" style="text;html=1;align=center;verticalAlign=middle;whiteSpace=wrap;rounded=0;fontSize=24;fillColor=#E1D5E7;strokeColor=#9673a6;" vertex="1" parent="1">
          <mxGeometry x="45" y="177.5" width="150" height="35" as="geometry" />
        </mxCell>
        <mxCell id="DaLSolLUmTDwcY_zlHiM-3" value="" style="rounded=0;whiteSpace=wrap;html=1;fillColor=#E1D5E7;strokeColor=#9673a6;" vertex="1" parent="1">
          <mxGeometry x="430" y="545" width="640" height="120" as="geometry" />
        </mxCell>
        <mxCell id="DaLSolLUmTDwcY_zlHiM-5" value="&lt;div&gt;&lt;span style=&quot;font-size: 24px;&quot;&gt;p&lt;/span&gt;&lt;/div&gt;&lt;font style=&quot;font-size: 24px;&quot;&gt;表尾文字(置中)&lt;/font&gt;" style="text;html=1;align=center;verticalAlign=middle;whiteSpace=wrap;rounded=0;" vertex="1" parent="1">
          <mxGeometry x="657" y="560" width="170" height="75" as="geometry" />
        </mxCell>
        <mxCell id="DaLSolLUmTDwcY_zlHiM-6" value="&lt;div style=&quot;text-align: center;&quot;&gt;&lt;span style=&quot;font-size: 24px;&quot;&gt;全域設定&lt;/span&gt;&lt;/div&gt;&lt;span style=&quot;color: rgb(0, 0, 0); font-family: Helvetica; font-size: 24px; font-style: normal; font-variant-ligatures: normal; font-variant-caps: normal; font-weight: 400; letter-spacing: normal; orphans: 2; text-align: center; text-indent: 0px; text-transform: none; widows: 2; word-spacing: 0px; -webkit-text-stroke-width: 0px; white-space: normal; background-color: rgb(251, 251, 251); text-decoration-thickness: initial; text-decoration-style: initial; text-decoration-color: initial; display: inline !important; float: none;&quot;&gt;font-size:16px,line-height:1.5&lt;/span&gt;" style="text;whiteSpace=wrap;html=1;" vertex="1" parent="1">
          <mxGeometry x="494" y="140" width="340" height="80" as="geometry" />
        </mxCell>
        <mxCell id="DaLSolLUmTDwcY_zlHiM-7" value="24" style="edgeStyle=orthogonalEdgeStyle;rounded=0;orthogonalLoop=1;jettySize=auto;html=1;entryX=0.076;entryY=0.017;entryDx=0;entryDy=0;entryPerimeter=0;" edge="1" parent="1" source="J54ywzlfJ32gfcLBf6p1-9" target="DaLSolLUmTDwcY_zlHiM-3">
          <mxGeometry relative="1" as="geometry">
            <mxPoint x="478" y="541" as="targetPoint" />
          </mxGeometry>
        </mxCell>
        <mxCell id="DaLSolLUmTDwcY_zlHiM-8" value="&lt;font style=&quot;font-size: 24px;&quot;&gt;.news_content&lt;/font&gt;" style="rounded=0;whiteSpace=wrap;html=1;fillColor=#BAC8D3;strokeColor=#23445d;" vertex="1" parent="1">
          <mxGeometry x="546" y="305" width="288" height="95" as="geometry" />
        </mxCell>
        <mxCell id="DaLSolLUmTDwcY_zlHiM-11" value="&lt;font style=&quot;font-size: 24px;&quot;&gt;.news_content&lt;/font&gt;" style="rounded=0;whiteSpace=wrap;html=1;fillColor=#bac8d3;strokeColor=#23445d;" vertex="1" parent="1">
          <mxGeometry x="546" y="425" width="288" height="95" as="geometry" />
        </mxCell>
        <mxCell id="DaLSolLUmTDwcY_zlHiM-15" style="edgeStyle=orthogonalEdgeStyle;rounded=0;orthogonalLoop=1;jettySize=auto;html=1;" edge="1" parent="1" source="DaLSolLUmTDwcY_zlHiM-18" target="J54ywzlfJ32gfcLBf6p1-3">
          <mxGeometry relative="1" as="geometry">
            <mxPoint x="990" y="230" as="sourcePoint" />
            <Array as="points">
              <mxPoint x="270" y="225" />
              <mxPoint x="840" y="225" />
            </Array>
          </mxGeometry>
        </mxCell>
        <mxCell id="DaLSolLUmTDwcY_zlHiM-18" value=".news" style="text;html=1;align=center;verticalAlign=middle;whiteSpace=wrap;rounded=0;fontSize=24;fillColor=#E1D5E7;strokeColor=#9673a6;" vertex="1" parent="1">
          <mxGeometry x="210" y="180" width="120" height="30" as="geometry" />
        </mxCell>
        <mxCell id="DaLSolLUmTDwcY_zlHiM-22" style="edgeStyle=orthogonalEdgeStyle;rounded=0;orthogonalLoop=1;jettySize=auto;html=1;" edge="1" parent="1" source="DaLSolLUmTDwcY_zlHiM-20" target="J54ywzlfJ32gfcLBf6p1-17">
          <mxGeometry relative="1" as="geometry">
            <Array as="points">
              <mxPoint x="275" y="360" />
              <mxPoint x="380" y="360" />
              <mxPoint x="380" y="420" />
              <mxPoint x="540" y="420" />
            </Array>
          </mxGeometry>
        </mxCell>
        <mxCell id="DaLSolLUmTDwcY_zlHiM-23" style="edgeStyle=orthogonalEdgeStyle;rounded=0;orthogonalLoop=1;jettySize=auto;html=1;" edge="1" parent="1" source="DaLSolLUmTDwcY_zlHiM-20" target="J54ywzlfJ32gfcLBf6p1-18">
          <mxGeometry relative="1" as="geometry">
            <Array as="points">
              <mxPoint x="275" y="360" />
              <mxPoint x="380" y="360" />
              <mxPoint x="380" y="420" />
              <mxPoint x="540" y="420" />
            </Array>
          </mxGeometry>
        </mxCell>
        <mxCell id="DaLSolLUmTDwcY_zlHiM-20" value="li" style="text;html=1;align=center;verticalAlign=middle;whiteSpace=wrap;rounded=0;fontSize=24;fillColor=#FFE6CC;" vertex="1" parent="1">
          <mxGeometry x="220" y="290" width="110" height="30" as="geometry" />
        </mxCell>
        <mxCell id="DaLSolLUmTDwcY_zlHiM-25" value="h2.h2&amp;nbsp; font-size:20px,line-height:1.2" style="text;html=1;align=left;verticalAlign=middle;whiteSpace=wrap;rounded=0;fontSize=16;" vertex="1" parent="1">
          <mxGeometry x="546" y="305" width="310" height="30" as="geometry" />
        </mxCell>
        <mxCell id="DaLSolLUmTDwcY_zlHiM-26" value="p.item_content" style="text;html=1;align=left;verticalAlign=middle;whiteSpace=wrap;rounded=0;fontSize=16;" vertex="1" parent="1">
          <mxGeometry x="546" y="320" width="310" height="30" as="geometry" />
        </mxCell>
        <mxCell id="DaLSolLUmTDwcY_zlHiM-27" value="h2.h2&amp;nbsp; font-size:20px,line-height:1.2" style="text;html=1;align=left;verticalAlign=middle;whiteSpace=wrap;rounded=0;fontSize=16;" vertex="1" parent="1">
          <mxGeometry x="546" y="425" width="310" height="30" as="geometry" />
        </mxCell>
        <mxCell id="DaLSolLUmTDwcY_zlHiM-28" value="p.item_content" style="text;html=1;align=left;verticalAlign=middle;whiteSpace=wrap;rounded=0;fontSize=16;" vertex="1" parent="1">
          <mxGeometry x="546" y="440" width="310" height="30" as="geometry" />
        </mxCell>
      </root>
    </mxGraphModel>
  </diagram>
</mxfile>
